<svg width="28" height="30" viewBox="0 0 28 30" fill="none" xmlns="http://www.w3.org/2000/svg">
<g filter="url(#filter0_d_55_168)">
<path d="M23.32 9.55L21.43 8.92L22.32 7.14C22.4102 6.95369 22.4404 6.74396 22.4064 6.53977C22.3723 6.33558 22.2758 6.14698 22.13 6L20 3.87C19.8522 3.72209 19.6618 3.62421 19.4555 3.59013C19.2493 3.55604 19.0375 3.58748 18.85 3.68L17.07 4.57L16.44 2.68C16.3735 2.48299 16.2472 2.31163 16.0787 2.18975C15.9102 2.06787 15.7079 2.00154 15.5 2H12.5C12.2904 1.99946 12.0858 2.06482 11.9154 2.18684C11.7449 2.30886 11.6171 2.48138 11.55 2.68L10.92 4.57L9.14 3.68C8.95369 3.58978 8.74397 3.5596 8.53978 3.59364C8.33558 3.62767 8.14699 3.72423 8 3.87L5.87 6C5.72209 6.14776 5.62421 6.33817 5.59013 6.54446C5.55605 6.75074 5.58748 6.96251 5.68 7.15L6.57 8.93L4.68 9.56C4.483 9.62653 4.31163 9.75283 4.18975 9.92131C4.06787 10.0898 4.00155 10.2921 4 10.5V13.5C3.99946 13.7096 4.06482 13.9142 4.18685 14.0846C4.30887 14.2551 4.48138 14.3829 4.68 14.45L6.57 15.08L5.68 16.86C5.58978 17.0463 5.55961 17.256 5.59364 17.4602C5.62767 17.6644 5.72423 17.853 5.87 18L8 20.13C8.14777 20.2779 8.33818 20.3758 8.54446 20.4099C8.75074 20.444 8.96251 20.4125 9.15 20.32L10.93 19.43L11.56 21.32C11.6271 21.5186 11.7549 21.6911 11.9254 21.8132C12.0958 21.9352 12.3004 22.0005 12.51 22H15.51C15.7196 22.0005 15.9242 21.9352 16.0946 21.8132C16.2651 21.6911 16.3929 21.5186 16.46 21.32L17.09 19.43L18.87 20.32C19.0551 20.4079 19.2628 20.4369 19.4649 20.4029C19.667 20.3689 19.8538 20.2736 20 20.13L22.13 18C22.2779 17.8522 22.3758 17.6618 22.4099 17.4555C22.444 17.2493 22.4125 17.0375 22.32 16.85L21.43 15.07L23.32 14.44C23.517 14.3735 23.6884 14.2472 23.8103 14.0787C23.9321 13.9102 23.9985 13.7079 24 13.5V10.5C24.0005 10.2904 23.9352 10.0858 23.8132 9.91537C23.6911 9.7449 23.5186 9.61709 23.32 9.55ZM22 12.78L20.8 13.18C20.5241 13.2695 20.2709 13.418 20.0581 13.6151C19.8452 13.8122 19.6778 14.0533 19.5675 14.3216C19.4571 14.5899 19.4064 14.8789 19.419 15.1688C19.4315 15.4586 19.5069 15.7422 19.64 16L20.21 17.14L19.11 18.24L18 17.64C17.7436 17.5122 17.4627 17.4411 17.1763 17.4313C16.89 17.4215 16.6049 17.4734 16.3403 17.5834C16.0758 17.6934 15.8379 17.8589 15.6429 18.0688C15.4479 18.2787 15.3003 18.5281 15.21 18.8L14.81 20H13.22L12.82 18.8C12.7305 18.5241 12.582 18.2709 12.3849 18.0581C12.1878 17.8452 11.9467 17.6778 11.6784 17.5675C11.4101 17.4571 11.1211 17.4064 10.8312 17.419C10.5414 17.4315 10.2578 17.5069 10 17.64L8.86 18.21L7.76 17.11L8.36 16C8.4931 15.7422 8.56852 15.4586 8.58105 15.1688C8.59357 14.8789 8.5429 14.5899 8.43254 14.3216C8.32218 14.0533 8.15478 13.8122 7.94195 13.6151C7.72912 13.418 7.47595 13.2695 7.2 13.18L6 12.78V11.22L7.2 10.82C7.47595 10.7305 7.72912 10.582 7.94195 10.3849C8.15478 10.1878 8.32218 9.94671 8.43254 9.67842C8.5429 9.41013 8.59357 9.12105 8.58105 8.83122C8.56852 8.5414 8.4931 8.25776 8.36 8L7.79 6.89L8.89 5.79L10 6.36C10.2578 6.49309 10.5414 6.56852 10.8312 6.58105C11.1211 6.59357 11.4101 6.5429 11.6784 6.43254C11.9467 6.32218 12.1878 6.15478 12.3849 5.94194C12.582 5.72911 12.7305 5.47594 12.82 5.2L13.22 4H14.78L15.18 5.2C15.2695 5.47594 15.418 5.72911 15.6151 5.94194C15.8122 6.15478 16.0533 6.32218 16.3216 6.43254C16.5899 6.5429 16.879 6.59357 17.1688 6.58105C17.4586 6.56852 17.7422 6.49309 18 6.36L19.14 5.79L20.24 6.89L19.64 8C19.5122 8.25644 19.4411 8.53735 19.4313 8.82369C19.4215 9.11003 19.4734 9.39513 19.5834 9.65968C19.6934 9.92424 19.8589 10.1621 20.0688 10.3571C20.2787 10.5521 20.5281 10.6997 20.8 10.79L22 11.19V12.78ZM14 8C13.2089 8 12.4355 8.2346 11.7777 8.67412C11.1199 9.11365 10.6072 9.73836 10.3045 10.4693C10.0017 11.2002 9.92252 12.0044 10.0769 12.7804C10.2312 13.5563 10.6122 14.269 11.1716 14.8284C11.731 15.3878 12.4437 15.7688 13.2196 15.9231C13.9956 16.0775 14.7998 15.9983 15.5307 15.6955C16.2616 15.3928 16.8864 14.8801 17.3259 14.2223C17.7654 13.5645 18 12.7911 18 12C18 10.9391 17.5786 9.92172 16.8284 9.17157C16.0783 8.42143 15.0609 8 14 8V8ZM14 14C13.6044 14 13.2178 13.8827 12.8889 13.6629C12.56 13.4432 12.3036 13.1308 12.1522 12.7654C12.0009 12.3999 11.9613 11.9978 12.0384 11.6098C12.1156 11.2219 12.3061 10.8655 12.5858 10.5858C12.8655 10.3061 13.2219 10.1156 13.6098 10.0384C13.9978 9.96126 14.3999 10.0009 14.7654 10.1522C15.1308 10.3036 15.4432 10.56 15.6629 10.8889C15.8827 11.2178 16 11.6044 16 12C16 12.5304 15.7893 13.0391 15.4142 13.4142C15.0391 13.7893 14.5304 14 14 14Z" fill="#7A67C7"/>
</g>
<defs>
<filter id="filter0_d_55_168" x="-2" y="0" width="32" height="32" filterUnits="userSpaceOnUse" color-interpolation-filters="sRGB">
<feFlood flood-opacity="0" result="BackgroundImageFix"/>
<feColorMatrix in="SourceAlpha" type="matrix" values="0 0 0 0 0 0 0 0 0 0 0 0 0 0 0 0 0 0 127 0" result="hardAlpha"/>
<feOffset dy="4"/>
<feGaussianBlur stdDeviation="2"/>
<feComposite in2="hardAlpha" operator="out"/>
<feColorMatrix type="matrix" values="0 0 0 0 0 0 0 0 0 0 0 0 0 0 0 0 0 0 0.25 0"/>
<feBlend mode="normal" in2="BackgroundImageFix" result="effect1_dropShadow_55_168"/>
<feBlend mode="normal" in="SourceGraphic" in2="effect1_dropShadow_55_168" result="shape"/>
</filter>
</defs>
</svg>
